# xmcd CD database file
#
# Track frame offsets:
#	150
#	13464
#	27124
#	39763
#	52264
#	64581
#	78843
#	94507
#	106422
#	117702
#	131547
#	150328
#	162091
#
# Disc length: 2315 seconds
#
# Revision: 0
# Processed by: cddbd v1.5.1PL2 Copyright (c) Steve Scherf et al.
# Submitted via: CDex 1.51
#
DISCID=9c09090d
DTITLE=Bobby Bare - Uforglemmelige klassikere
DYEAR=2005
DGENRE=Country
TTITLE0=Detroit City
TTITLE1=Miller's Cave
TTITLE2=Four Strong Winds
TTITLE3=Five Hundred Miles
TTITLE4=Streets of Baltimore
TTITLE5=All American Boy
TTITLE6=(Margie's At) The Lincoln Park Inn
TTITLE7=Come Sundown  (She'll Be Gone)
TTITLE8=Please Don't Tell Me How The Story Ends
TTITLE9=Marie Laveau
TTITLE10=Tequila Sheila
TTITLE11=Shame On Me
TTITLE12=Daddy What If
EXTD=YEAR: 2005
EXTT0=
EXTT1=
EXTT2=
EXTT3=
EXTT4=
EXTT5=
EXTT6=
EXTT7=
EXTT8=
EXTT9=
EXTT10=
EXTT11=
EXTT12=
PLAYORDER=
